<?xml version="1.0" encoding="UTF-8"?>
<!DOCTYPE svg PUBLIC "-//W3C//DTD SVG 1.1//EN" "http://www.w3.org/Graphics/SVG/1.1/DTD/svg11.dtd">
<!-- Creator: CorelDRAW (Versión de evaluación) -->
<svg xmlns="http://www.w3.org/2000/svg" xml:space="preserve" width="210mm" height="80mm" version="1.1" style="shape-rendering:geometricPrecision; text-rendering:geometricPrecision; image-rendering:optimizeQuality; fill-rule:evenodd; clip-rule:evenodd"
viewBox="0 0 21000 8000"
 xmlns:xlink="http://www.w3.org/1999/xlink"
 xmlns:xodm="http://www.corel.com/coreldraw/odm/2003">
 <defs>
  <style type="text/css">
   <![CDATA[
    .str0 {stroke:white;stroke-width:423.33;stroke-linecap:round;stroke-linejoin:round;stroke-miterlimit:22.9256}
    .fil0 {fill:none}
    .fil1 {fill:#E05E00;fill-rule:nonzero}
   ]]>
  </style>
 </defs>
 <g id="Capa_x0020_1">
  <metadata id="CorelCorpID_0Corel-Layer"/>
  <g id="_3007701767056">
   <path class="fil0 str0" d="M973.16 3815.57c0,-242.71 40.93,-457.2 122.77,-643.46 81.84,-186.27 193.32,-342.9 334.43,-469.9 141.11,-127 307.62,-222.96 499.54,-287.87 191.91,-64.91 397.93,-97.36 618.06,-97.36 183.45,0 344.31,19.75 482.6,59.26 138.29,39.51 254,89.61 347.13,150.29 93.14,60.67 162.99,128.41 209.55,203.2 46.57,74.78 69.85,147.46 69.85,218.01 0,62.09 -11.28,120.65 -33.86,175.69 -22.58,55.03 -52.92,103.71 -91.02,146.04 -38.1,42.34 -83.25,76.2 -135.47,101.6 -52.21,25.4 -107.95,38.1 -167.21,38.1 -59.27,0 -111.48,-15.52 -156.64,-46.56 -45.15,-31.05 -92.42,-64.91 -141.81,-101.6 -49.39,-36.69 -103.72,-70.56 -162.98,-101.6 -59.27,-31.05 -132.65,-46.57 -220.14,-46.57 -186.26,0 -328.79,60.68 -427.56,182.03 -98.78,121.36 -148.17,292.1 -148.17,512.24 0,110.06 13.4,210.25 40.22,300.56 26.81,90.32 62.79,167.22 107.95,230.72 45.15,63.5 98.77,112.18 160.86,146.05 62.09,33.87 128.41,50.8 198.97,50.8 121.35,0 217.31,-18.34 287.87,-55.03 70.55,-36.69 132.64,-77.61 186.26,-122.77 53.62,-45.15 105.83,-86.08 156.63,-122.77 50.8,-36.68 117.13,-55.03 198.97,-55.03 45.16,0 91.02,11.29 137.58,33.87 46.57,22.58 88.9,52.21 127,88.9 38.1,36.69 69.15,80.43 93.14,131.23 23.99,50.8 35.98,103.01 35.98,156.63 0,73.38 -21.87,146.05 -65.62,218.02 -43.74,71.97 -96.66,136.17 -158.75,192.62 -98.77,90.31 -228.6,168.62 -389.46,234.95 -160.87,66.32 -369.71,99.48 -626.53,99.48 -220.14,0 -421.93,-35.98 -605.37,-107.95 -183.45,-71.97 -340.78,-174.27 -472.02,-306.92 -131.23,-132.64 -232.83,-292.1 -304.8,-478.36 -71.96,-186.27 -107.95,-395.11 -107.95,-626.54z"/>
  </g>
  <g id="_3007701768160">
   <path id="_1" class="fil0 str0" d="M3978.83 3790.17c0,-81.84 0,-180.62 0,-296.33 0,-115.71 2.11,-229.3 6.35,-340.78 4.23,-111.48 9.17,-214.49 14.81,-309.03 5.65,-94.55 15.53,-161.58 29.64,-201.09 62.09,-203.2 215.9,-304.8 461.43,-304.8 81.84,0 161.57,17.64 239.18,52.92 77.61,35.28 136.17,98.07 175.69,188.38 19.75,47.98 35.27,114.3 46.56,198.97 11.29,84.67 19.05,180.62 23.29,287.87 4.23,107.24 7.05,222.95 8.46,347.13 1.41,124.18 2.12,249.76 2.12,376.76 0,115.72 -0.71,240.6 -2.12,374.65 -1.41,134.06 -3.53,261.06 -6.35,381 -2.82,119.95 -7.05,225.78 -12.7,317.5 -5.64,91.73 -14.11,154.52 -25.4,188.39 -33.86,107.24 -91.72,178.5 -173.56,213.78 -81.85,35.28 -177.8,52.92 -287.87,52.92 -160.87,0 -273.05,-33.87 -336.55,-101.6 -63.5,-67.74 -105.13,-167.93 -124.88,-300.57 -8.47,-45.16 -14.82,-110.77 -19.05,-196.85 -4.24,-86.08 -7.76,-180.62 -10.59,-283.63 -2.82,-103.01 -4.94,-210.96 -6.35,-323.85 -1.41,-112.89 -2.11,-220.14 -2.11,-321.74z"/>
  </g>
  <g id="_3007701766816">
   <path id="_2" class="fil0 str0" d="M5439.33 3286.41c31.04,-110.07 88.19,-186.97 171.45,-230.72 83.26,-43.74 175.68,-65.61 277.28,-65.61 118.54,0 210.96,19.05 277.29,57.15 66.32,38.1 116.41,98.07 150.28,179.91 33.87,81.85 56.44,203.91 67.73,366.18 11.29,162.28 16.94,343.61 16.94,543.99 0,98.78 0,188.38 0,268.81 0,80.44 -1.42,153.11 -4.24,218.02 -2.82,64.91 -6.35,125.59 -10.58,182.03 -4.23,56.45 -10.58,111.48 -19.05,165.1 -19.76,118.54 -64.21,206.73 -133.35,264.59 -69.15,57.85 -171.45,86.78 -306.92,86.78 -129.82,0 -236.36,-24.69 -319.61,-74.08 -83.26,-49.39 -137.59,-141.82 -162.99,-277.29 -8.46,-50.8 -16.22,-111.47 -23.28,-182.03 -7.06,-70.56 -12.7,-144.64 -16.93,-222.25 -4.24,-77.61 -7.06,-156.63 -8.47,-237.07 -1.41,-80.43 -2.12,-155.92 -2.12,-226.48 0,-70.55 0,-143.93 0,-220.13 0,-76.2 1.41,-151.7 4.24,-226.49 2.82,-74.78 7.76,-143.93 14.81,-207.43 7.06,-63.5 16.23,-117.83 27.52,-162.98zm-50.8 -859.37c0,-70.55 14.11,-129.82 42.33,-177.8 28.23,-47.98 66.33,-86.78 114.3,-116.41 47.98,-29.64 103.72,-50.8 167.22,-63.5 63.5,-12.7 130.53,-19.05 201.08,-19.05 141.11,0 257.53,31.75 349.25,95.25 91.72,63.5 137.59,154.51 137.59,273.05 0,118.53 -47.28,210.96 -141.82,277.28 -94.55,66.32 -218.02,99.48 -370.42,99.48 -152.4,0 -273.75,-33.16 -364.06,-99.48 -90.31,-66.32 -135.47,-155.93 -135.47,-268.82z"/>
  </g>
  <g id="_3007701762400">
   <path id="_3" class="fil0 str0" d="M7695.7 4188.11c0,124.18 30.34,229.3 91.02,315.38 60.67,86.08 148.87,129.12 264.58,129.12 64.91,0 120.65,-14.82 167.22,-44.45 46.56,-29.64 83.96,-66.32 112.18,-110.07 28.22,-43.74 48.68,-93.13 61.38,-148.17 12.7,-55.03 19.05,-107.95 19.05,-158.75 0,-132.64 -32.45,-242.71 -97.36,-330.2 -64.92,-87.48 -150.99,-131.23 -258.24,-131.23 -121.35,0 -211.66,46.57 -270.93,139.7 -59.27,93.13 -88.9,206.02 -88.9,338.67zm-846.67 -939.8c31.05,-90.31 85.38,-154.52 162.99,-192.62 77.61,-38.1 175.68,-57.15 294.21,-57.15 115.71,0 201.09,12.7 256.12,38.1 55.03,25.4 99.48,66.32 133.35,122.77 14.11,25.4 27.52,45.15 40.22,59.26 12.7,14.12 30.33,21.17 52.91,21.17 33.87,0 63.5,-12.7 88.9,-38.1 25.4,-25.4 57.86,-54.33 97.37,-86.78 39.51,-32.46 91.72,-61.38 156.63,-86.78 64.91,-25.4 155.22,-38.1 270.94,-38.1 143.93,0 273.75,29.63 389.46,88.9 115.71,59.26 215.2,140.4 298.45,243.41 83.26,103.01 147.46,225.78 192.62,368.3 45.15,142.52 67.73,297.04 67.73,463.55 0,183.45 -24.69,347.84 -74.08,493.18 -49.39,145.35 -116.42,268.82 -201.09,370.42 -84.66,101.6 -184.85,179.92 -300.56,234.95 -115.71,55.03 -239.89,82.55 -372.53,82.55 -67.74,0 -128.42,-7.76 -182.04,-23.28 -53.62,-15.53 -101.6,-34.58 -143.93,-57.15 -42.33,-22.58 -78.32,-45.86 -107.95,-69.85 -29.63,-23.99 -52.92,-45.86 -69.85,-65.62 -22.58,-25.4 -47.98,-38.1 -76.2,-38.1 -14.11,0 -27.52,7.06 -40.22,21.17 -12.7,14.11 -19.05,32.45 -19.05,55.03 0,70.56 0.71,137.58 2.12,201.08 1.41,63.5 2.12,150.29 2.12,260.35 0,110.07 -39.52,194.03 -118.54,251.89 -79.02,57.85 -186.26,86.78 -321.73,86.78 -135.47,0 -244.83,-19.05 -328.08,-57.15 -83.26,-38.1 -136.18,-106.54 -158.75,-205.32 -11.29,-50.8 -21.17,-121.35 -29.64,-211.66 -8.46,-90.31 -14.81,-191.91 -19.05,-304.8 -4.23,-112.89 -7.05,-234.25 -8.46,-364.07 -1.41,-129.82 -2.12,-258.23 -2.12,-385.23 0,-127 0.71,-252.59 2.12,-376.77 1.41,-124.18 4.23,-239.18 8.46,-345.02 4.24,-105.83 11.29,-198.26 21.17,-277.28 9.88,-79.02 21.87,-139.7 35.98,-182.03z"/>
  </g>
  <g id="_3007701764272">
   <path id="_4" class="fil0 str0" d="M9435.59 2884.24c0,-112.89 36.69,-205.31 110.07,-277.28 73.38,-71.97 174.27,-127.71 302.68,-167.22 128.41,-39.51 280.81,-66.32 457.2,-80.43 176.39,-14.11 367.6,-21.17 573.62,-21.17 254,0 467.78,8.47 641.35,25.4 173.56,16.94 313.26,45.86 419.1,86.79 105.83,40.92 182.03,94.54 228.6,160.86 46.56,66.32 69.85,150.29 69.85,251.89 0,118.53 -28.93,213.78 -86.79,285.75 -57.85,71.96 -138.99,107.94 -243.41,107.94 -53.62,0 -112.19,-8.46 -175.69,-25.4 -63.5,-16.93 -123.47,-25.4 -179.91,-25.4 -98.78,0 -164.4,35.28 -196.85,105.84 -32.46,70.55 -48.68,166.51 -48.68,287.86 0,112.89 4.23,220.14 12.7,321.74 8.46,101.6 17.63,199.67 27.51,294.21 9.88,94.55 19.05,189.09 27.52,283.64 8.47,94.54 12.7,192.61 12.7,294.21 0,112.89 -14.82,203.91 -44.45,273.05 -29.63,69.15 -69.85,122.77 -120.65,160.87 -50.8,38.1 -110.77,63.5 -179.92,76.2 -69.14,12.7 -141.81,19.05 -218.01,19.05 -172.16,0 -304.1,-47.27 -395.82,-141.82 -91.72,-94.54 -137.58,-227.89 -137.58,-400.05 0,-112.89 4.23,-223.66 12.7,-332.31 8.46,-108.66 18.34,-217.31 29.63,-325.97 11.29,-108.65 21.17,-218.72 29.63,-330.2 8.47,-111.48 12.7,-227.89 12.7,-349.25 0,-149.58 -67.73,-224.37 -203.2,-224.37 -56.44,0 -120.65,12 -192.61,35.99 -71.97,23.99 -139,35.98 -201.09,35.98 -118.53,0 -205.31,-39.51 -260.35,-118.53 -55.03,-79.02 -82.55,-174.98 -82.55,-287.87z"/>
  </g>
  <g id="_3007701764032">
   <path id="_5" class="fil0 str0" d="M13118.59 4696.11c127,0 227.19,-37.4 300.57,-112.19 73.38,-74.78 110.07,-184.15 110.07,-328.08 0,-42.33 -19.76,-63.5 -59.27,-63.5 -11.29,0 -31.05,2.82 -59.27,8.47 -28.22,5.64 -59.26,11.99 -93.13,19.05 -33.87,7.05 -69.85,15.52 -107.95,25.4 -38.1,9.88 -72.67,19.05 -103.72,27.51 -62.09,16.94 -112.18,43.75 -150.28,80.44 -38.1,36.69 -57.15,88.9 -57.15,156.63 0,56.45 19.75,101.6 59.27,135.47 39.51,33.86 93.13,50.8 160.86,50.8zm38.1 -1706.03c132.65,0 259.65,7.76 381,23.28 121.36,15.52 232.84,45.15 334.44,88.9 101.6,43.74 191.91,103.71 270.93,179.91 79.02,76.2 142.52,173.57 190.5,292.1 19.75,50.8 35.98,116.42 48.68,196.85 12.7,80.44 22.58,167.22 29.63,260.35 7.06,93.14 12,186.98 14.82,281.52 2.82,94.55 4.23,179.92 4.23,256.12 0,107.24 -3.52,206.72 -10.58,298.45 -7.05,91.72 -17.64,165.8 -31.75,222.25 -11.29,42.33 -26.1,77.61 -44.45,105.83 -18.34,28.22 -45.15,52.21 -80.43,71.97 -35.28,19.75 -82.55,33.86 -141.82,42.33 -59.27,8.47 -135.46,12.7 -228.6,12.7 -90.31,0 -170.74,-11.29 -241.3,-33.87 -70.55,-22.57 -114.3,-73.37 -131.23,-152.4 -8.47,-36.69 -21.17,-55.03 -38.1,-55.03 -11.29,0 -21.87,3.53 -31.75,10.58 -9.88,7.06 -21.87,14.82 -35.98,23.29 -31.05,22.57 -63.5,46.56 -97.37,71.96 -33.87,25.4 -73.38,48.69 -118.53,69.85 -45.16,21.17 -99.49,39.51 -162.99,55.04 -63.5,15.52 -141.81,23.28 -234.95,23.28 -112.89,0 -217.31,-17.64 -313.26,-52.92 -95.96,-35.27 -179.92,-86.78 -251.89,-154.51 -71.96,-67.74 -128.41,-149.58 -169.33,-245.54 -40.92,-95.95 -61.38,-204.61 -61.38,-325.96 0,-166.51 35.98,-295.63 107.95,-387.35 71.96,-91.72 160.86,-160.87 266.7,-207.44 105.83,-46.56 221.54,-76.9 347.13,-91.01 125.59,-14.11 241.3,-25.4 347.13,-33.87 105.84,-8.47 194.74,-22.58 266.7,-42.33 71.97,-19.76 107.95,-57.86 107.95,-114.3 0,-67.74 -69.14,-101.6 -207.43,-101.6 -39.51,0 -91.72,9.88 -156.63,29.63 -64.92,19.76 -132.65,41.63 -203.2,65.62 -70.56,23.99 -140.41,45.86 -209.55,65.61 -69.15,19.76 -129.12,29.64 -179.92,29.64 -39.51,0 -76.91,-9.88 -112.18,-29.64 -35.28,-19.75 -67.74,-47.27 -97.37,-82.55 -29.63,-35.27 -52.92,-76.2 -69.85,-122.76 -16.93,-46.57 -25.4,-96.66 -25.4,-150.29 0,-87.48 37.39,-157.33 112.18,-209.54 74.79,-52.22 164.4,-92.43 268.82,-120.65 104.42,-28.23 211.67,-45.87 321.73,-52.92 110.07,-7.06 198.97,-10.58 266.7,-10.58z"/>
  </g>
  <g id="_3007701765040">
   <path id="_6" class="fil0 str0" d="M15705.16 4188.11c0,124.18 30.34,229.3 91.02,315.38 60.67,86.08 148.87,129.12 264.58,129.12 64.91,0 120.65,-14.82 167.22,-44.45 46.56,-29.64 83.96,-66.32 112.18,-110.07 28.22,-43.74 48.68,-93.13 61.38,-148.17 12.7,-55.03 19.05,-107.95 19.05,-158.75 0,-132.64 -32.45,-242.71 -97.36,-330.2 -64.92,-87.48 -150.99,-131.23 -258.24,-131.23 -121.35,0 -211.66,46.57 -270.93,139.7 -59.27,93.13 -88.9,206.02 -88.9,338.67zm-846.67 -939.8c31.05,-90.31 85.38,-154.52 162.99,-192.62 77.61,-38.1 175.68,-57.15 294.21,-57.15 115.71,0 201.09,12.7 256.12,38.1 55.03,25.4 99.48,66.32 133.35,122.77 14.11,25.4 27.52,45.15 40.22,59.26 12.7,14.12 30.33,21.17 52.91,21.17 33.87,0 63.5,-12.7 88.9,-38.1 25.4,-25.4 57.86,-54.33 97.37,-86.78 39.51,-32.46 91.72,-61.38 156.63,-86.78 64.91,-25.4 155.22,-38.1 270.94,-38.1 143.93,0 273.75,29.63 389.46,88.9 115.71,59.26 215.2,140.4 298.45,243.41 83.26,103.01 147.46,225.78 192.62,368.3 45.15,142.52 67.73,297.04 67.73,463.55 0,183.45 -24.69,347.84 -74.08,493.18 -49.39,145.35 -116.42,268.82 -201.09,370.42 -84.66,101.6 -184.85,179.92 -300.56,234.95 -115.71,55.03 -239.89,82.55 -372.53,82.55 -67.74,0 -128.42,-7.76 -182.04,-23.28 -53.62,-15.53 -101.6,-34.58 -143.93,-57.15 -42.33,-22.58 -78.32,-45.86 -107.95,-69.85 -29.63,-23.99 -52.92,-45.86 -69.85,-65.62 -22.58,-25.4 -47.98,-38.1 -76.2,-38.1 -14.11,0 -27.52,7.06 -40.22,21.17 -12.7,14.11 -19.05,32.45 -19.05,55.03 0,70.56 0.71,137.58 2.12,201.08 1.41,63.5 2.12,150.29 2.12,260.35 0,110.07 -39.52,194.03 -118.54,251.89 -79.02,57.85 -186.26,86.78 -321.73,86.78 -135.47,0 -244.83,-19.05 -328.08,-57.15 -83.26,-38.1 -136.18,-106.54 -158.75,-205.32 -11.29,-50.8 -21.17,-121.35 -29.64,-211.66 -8.46,-90.31 -14.81,-191.91 -19.05,-304.8 -4.23,-112.89 -7.05,-234.25 -8.46,-364.07 -1.41,-129.82 -2.12,-258.23 -2.12,-385.23 0,-127 0.71,-252.59 2.12,-376.77 1.41,-124.18 4.23,-239.18 8.46,-345.02 4.24,-105.83 11.29,-198.26 21.17,-277.28 9.88,-79.02 21.87,-139.7 35.98,-182.03z"/>
  </g>
  <g id="_3007701763120">
   <path id="_7" class="fil0 str0" d="M19146.85 3891.77c39.51,0 59.27,-19.75 59.27,-59.26 0,-56.45 -28.22,-107.95 -84.67,-154.52 -56.44,-46.57 -136.88,-69.85 -241.3,-69.85 -50.8,0 -96.66,8.47 -137.58,25.4 -40.92,16.93 -75.5,38.1 -103.72,63.5 -28.22,25.4 -49.39,52.21 -63.5,80.43 -14.11,28.23 -21.16,52.22 -21.16,71.97 0,31.05 15.52,46.57 46.56,46.57l546.1 -4.24zm-313.26 -910.16c191.91,0 361.24,29.63 508,88.9 146.75,59.27 270.22,134.76 370.41,226.48 100.19,91.72 176.39,193.32 228.6,304.8 52.21,111.48 78.32,218.02 78.32,319.62 0,98.78 -19.76,183.44 -59.27,254 -39.51,70.55 -105.83,105.83 -198.97,105.83 -56.44,0 -115,-3.53 -175.68,-10.58 -60.68,-7.06 -124.88,-10.59 -192.61,-10.59 -56.45,0 -118.54,1.42 -186.27,4.24 -67.73,2.82 -137.58,4.94 -209.55,6.35 -71.97,1.41 -142.52,3.53 -211.67,6.35 -69.14,2.82 -133.35,4.23 -192.61,4.23 -16.94,0 -33.17,4.94 -48.69,14.82 -15.52,9.88 -23.28,26.1 -23.28,48.68 0,31.05 8.47,64.21 25.4,99.48 16.93,35.28 41.63,67.74 74.08,97.37 32.46,29.63 72.67,54.33 120.65,74.08 47.98,19.76 101.6,29.64 160.87,29.64 93.13,0 172.15,-12 237.07,-35.99 64.91,-23.98 123.47,-50.09 175.68,-78.31 52.21,-28.22 100.89,-54.33 146.05,-78.32 45.15,-23.99 94.54,-35.98 148.16,-35.98 42.34,0 82.55,9.88 120.65,29.63 38.1,19.76 71.97,47.27 101.6,82.55 29.64,35.28 52.92,75.49 69.85,120.65 16.94,45.16 25.4,93.13 25.4,143.93 0,70.56 -30.33,138.29 -91.01,203.2 -60.68,64.91 -141.82,122.77 -243.42,173.57 -101.6,50.8 -217.31,91.72 -347.13,122.77 -129.82,31.04 -262.47,46.56 -397.93,46.56 -177.8,0 -344.32,-26.1 -499.54,-78.31 -155.22,-52.21 -289.98,-128.41 -404.28,-228.6 -114.3,-100.19 -204.61,-222.25 -270.93,-366.19 -66.33,-143.93 -99.49,-309.03 -99.49,-495.3 0,-141.11 26.11,-282.22 78.32,-423.33 52.21,-141.11 131.23,-268.82 237.07,-383.12 105.83,-114.3 237.77,-206.72 395.81,-277.28 158.05,-70.55 341.49,-105.83 550.34,-105.83z"/>
  </g>
  <path id="_8" class="fil1" d="M973.16 3815.57c0,-242.71 40.93,-457.2 122.77,-643.46 81.84,-186.27 193.32,-342.9 334.43,-469.9 141.11,-127 307.62,-222.96 499.54,-287.87 191.91,-64.91 397.93,-97.36 618.06,-97.36 183.45,0 344.31,19.75 482.6,59.26 138.29,39.51 254,89.61 347.13,150.29 93.14,60.67 162.99,128.41 209.55,203.2 46.57,74.78 69.85,147.46 69.85,218.01 0,62.09 -11.28,120.65 -33.86,175.69 -22.58,55.03 -52.92,103.71 -91.02,146.04 -38.1,42.34 -83.25,76.2 -135.47,101.6 -52.21,25.4 -107.95,38.1 -167.21,38.1 -59.27,0 -111.48,-15.52 -156.64,-46.56 -45.15,-31.05 -92.42,-64.91 -141.81,-101.6 -49.39,-36.69 -103.72,-70.56 -162.98,-101.6 -59.27,-31.05 -132.65,-46.57 -220.14,-46.57 -186.26,0 -328.79,60.68 -427.56,182.03 -98.78,121.36 -148.17,292.1 -148.17,512.24 0,110.06 13.4,210.25 40.22,300.56 26.81,90.32 62.79,167.22 107.95,230.72 45.15,63.5 98.77,112.18 160.86,146.05 62.09,33.87 128.41,50.8 198.97,50.8 121.35,0 217.31,-18.34 287.87,-55.03 70.55,-36.69 132.64,-77.61 186.26,-122.77 53.62,-45.15 105.83,-86.08 156.63,-122.77 50.8,-36.68 117.13,-55.03 198.97,-55.03 45.16,0 91.02,11.29 137.58,33.87 46.57,22.58 88.9,52.21 127,88.9 38.1,36.69 69.15,80.43 93.14,131.23 23.99,50.8 35.98,103.01 35.98,156.63 0,73.38 -21.87,146.05 -65.62,218.02 -43.74,71.97 -96.66,136.17 -158.75,192.62 -98.77,90.31 -228.6,168.62 -389.46,234.95 -160.87,66.32 -369.71,99.48 -626.53,99.48 -220.14,0 -421.93,-35.98 -605.37,-107.95 -183.45,-71.97 -340.78,-174.27 -472.02,-306.92 -131.23,-132.64 -232.83,-292.1 -304.8,-478.36 -71.96,-186.27 -107.95,-395.11 -107.95,-626.54z"/>
  <path id="_9" class="fil1" d="M3978.83 3790.17c0,-81.84 0,-180.62 0,-296.33 0,-115.71 2.11,-229.3 6.35,-340.78 4.23,-111.48 9.17,-214.49 14.81,-309.03 5.65,-94.55 15.53,-161.58 29.64,-201.09 62.09,-203.2 215.9,-304.8 461.43,-304.8 81.84,0 161.57,17.64 239.18,52.92 77.61,35.28 136.17,98.07 175.69,188.38 19.75,47.98 35.27,114.3 46.56,198.97 11.29,84.67 19.05,180.62 23.29,287.87 4.23,107.24 7.05,222.95 8.46,347.13 1.41,124.18 2.12,249.76 2.12,376.76 0,115.72 -0.71,240.6 -2.12,374.65 -1.41,134.06 -3.53,261.06 -6.35,381 -2.82,119.95 -7.05,225.78 -12.7,317.5 -5.64,91.73 -14.11,154.52 -25.4,188.39 -33.86,107.24 -91.72,178.5 -173.56,213.78 -81.85,35.28 -177.8,52.92 -287.87,52.92 -160.87,0 -273.05,-33.87 -336.55,-101.6 -63.5,-67.74 -105.13,-167.93 -124.88,-300.57 -8.47,-45.16 -14.82,-110.77 -19.05,-196.85 -4.24,-86.08 -7.76,-180.62 -10.59,-283.63 -2.82,-103.01 -4.94,-210.96 -6.35,-323.85 -1.41,-112.89 -2.11,-220.14 -2.11,-321.74z"/>
  <path id="_10" class="fil1" d="M5439.33 3286.41c31.04,-110.07 88.19,-186.97 171.45,-230.72 83.26,-43.74 175.68,-65.61 277.28,-65.61 118.54,0 210.96,19.05 277.29,57.15 66.32,38.1 116.41,98.07 150.28,179.91 33.87,81.85 56.44,203.91 67.73,366.18 11.29,162.28 16.94,343.61 16.94,543.99 0,98.78 0,188.38 0,268.81 0,80.44 -1.42,153.11 -4.24,218.02 -2.82,64.91 -6.35,125.59 -10.58,182.03 -4.23,56.45 -10.58,111.48 -19.05,165.1 -19.76,118.54 -64.21,206.73 -133.35,264.59 -69.15,57.85 -171.45,86.78 -306.92,86.78 -129.82,0 -236.36,-24.69 -319.61,-74.08 -83.26,-49.39 -137.59,-141.82 -162.99,-277.29 -8.46,-50.8 -16.22,-111.47 -23.28,-182.03 -7.06,-70.56 -12.7,-144.64 -16.93,-222.25 -4.24,-77.61 -7.06,-156.63 -8.47,-237.07 -1.41,-80.43 -2.12,-155.92 -2.12,-226.48 0,-70.55 0,-143.93 0,-220.13 0,-76.2 1.41,-151.7 4.24,-226.49 2.82,-74.78 7.76,-143.93 14.81,-207.43 7.06,-63.5 16.23,-117.83 27.52,-162.98zm-50.8 -859.37c0,-70.55 14.11,-129.82 42.33,-177.8 28.23,-47.98 66.33,-86.78 114.3,-116.41 47.98,-29.64 103.72,-50.8 167.22,-63.5 63.5,-12.7 130.53,-19.05 201.08,-19.05 141.11,0 257.53,31.75 349.25,95.25 91.72,63.5 137.59,154.51 137.59,273.05 0,118.53 -47.28,210.96 -141.82,277.28 -94.55,66.32 -218.02,99.48 -370.42,99.48 -152.4,0 -273.75,-33.16 -364.06,-99.48 -90.31,-66.32 -135.47,-155.93 -135.47,-268.82z"/>
  <path id="_11" class="fil1" d="M7695.7 4188.11c0,124.18 30.34,229.3 91.02,315.38 60.67,86.08 148.87,129.12 264.58,129.12 64.91,0 120.65,-14.82 167.22,-44.45 46.56,-29.64 83.96,-66.32 112.18,-110.07 28.22,-43.74 48.68,-93.13 61.38,-148.17 12.7,-55.03 19.05,-107.95 19.05,-158.75 0,-132.64 -32.45,-242.71 -97.36,-330.2 -64.92,-87.48 -150.99,-131.23 -258.24,-131.23 -121.35,0 -211.66,46.57 -270.93,139.7 -59.27,93.13 -88.9,206.02 -88.9,338.67zm-846.67 -939.8c31.05,-90.31 85.38,-154.52 162.99,-192.62 77.61,-38.1 175.68,-57.15 294.21,-57.15 115.71,0 201.09,12.7 256.12,38.1 55.03,25.4 99.48,66.32 133.35,122.77 14.11,25.4 27.52,45.15 40.22,59.26 12.7,14.12 30.33,21.17 52.91,21.17 33.87,0 63.5,-12.7 88.9,-38.1 25.4,-25.4 57.86,-54.33 97.37,-86.78 39.51,-32.46 91.72,-61.38 156.63,-86.78 64.91,-25.4 155.22,-38.1 270.94,-38.1 143.93,0 273.75,29.63 389.46,88.9 115.71,59.26 215.2,140.4 298.45,243.41 83.26,103.01 147.46,225.78 192.62,368.3 45.15,142.52 67.73,297.04 67.73,463.55 0,183.45 -24.69,347.84 -74.08,493.18 -49.39,145.35 -116.42,268.82 -201.09,370.42 -84.66,101.6 -184.85,179.92 -300.56,234.95 -115.71,55.03 -239.89,82.55 -372.53,82.55 -67.74,0 -128.42,-7.76 -182.04,-23.28 -53.62,-15.53 -101.6,-34.58 -143.93,-57.15 -42.33,-22.58 -78.32,-45.86 -107.95,-69.85 -29.63,-23.99 -52.92,-45.86 -69.85,-65.62 -22.58,-25.4 -47.98,-38.1 -76.2,-38.1 -14.11,0 -27.52,7.06 -40.22,21.17 -12.7,14.11 -19.05,32.45 -19.05,55.03 0,70.56 0.71,137.58 2.12,201.08 1.41,63.5 2.12,150.29 2.12,260.35 0,110.07 -39.52,194.03 -118.54,251.89 -79.02,57.85 -186.26,86.78 -321.73,86.78 -135.47,0 -244.83,-19.05 -328.08,-57.15 -83.26,-38.1 -136.18,-106.54 -158.75,-205.32 -11.29,-50.8 -21.17,-121.35 -29.64,-211.66 -8.46,-90.31 -14.81,-191.91 -19.05,-304.8 -4.23,-112.89 -7.05,-234.25 -8.46,-364.07 -1.41,-129.82 -2.12,-258.23 -2.12,-385.23 0,-127 0.71,-252.59 2.12,-376.77 1.41,-124.18 4.23,-239.18 8.46,-345.02 4.24,-105.83 11.29,-198.26 21.17,-277.28 9.88,-79.02 21.87,-139.7 35.98,-182.03z"/>
  <path id="_12" class="fil1" d="M9435.59 2884.24c0,-112.89 36.69,-205.31 110.07,-277.28 73.38,-71.97 174.27,-127.71 302.68,-167.22 128.41,-39.51 280.81,-66.32 457.2,-80.43 176.39,-14.11 367.6,-21.17 573.62,-21.17 254,0 467.78,8.47 641.35,25.4 173.56,16.94 313.26,45.86 419.1,86.79 105.83,40.92 182.03,94.54 228.6,160.86 46.56,66.32 69.85,150.29 69.85,251.89 0,118.53 -28.93,213.78 -86.79,285.75 -57.85,71.96 -138.99,107.94 -243.41,107.94 -53.62,0 -112.19,-8.46 -175.69,-25.4 -63.5,-16.93 -123.47,-25.4 -179.91,-25.4 -98.78,0 -164.4,35.28 -196.85,105.84 -32.46,70.55 -48.68,166.51 -48.68,287.86 0,112.89 4.23,220.14 12.7,321.74 8.46,101.6 17.63,199.67 27.51,294.21 9.88,94.55 19.05,189.09 27.52,283.64 8.47,94.54 12.7,192.61 12.7,294.21 0,112.89 -14.82,203.91 -44.45,273.05 -29.63,69.15 -69.85,122.77 -120.65,160.87 -50.8,38.1 -110.77,63.5 -179.92,76.2 -69.14,12.7 -141.81,19.05 -218.01,19.05 -172.16,0 -304.1,-47.27 -395.82,-141.82 -91.72,-94.54 -137.58,-227.89 -137.58,-400.05 0,-112.89 4.23,-223.66 12.7,-332.31 8.46,-108.66 18.34,-217.31 29.63,-325.97 11.29,-108.65 21.17,-218.72 29.63,-330.2 8.47,-111.48 12.7,-227.89 12.7,-349.25 0,-149.58 -67.73,-224.37 -203.2,-224.37 -56.44,0 -120.65,12 -192.61,35.99 -71.97,23.99 -139,35.98 -201.09,35.98 -118.53,0 -205.31,-39.51 -260.35,-118.53 -55.03,-79.02 -82.55,-174.98 -82.55,-287.87z"/>
  <path id="_13" class="fil1" d="M13118.59 4696.11c127,0 227.19,-37.4 300.57,-112.19 73.38,-74.78 110.07,-184.15 110.07,-328.08 0,-42.33 -19.76,-63.5 -59.27,-63.5 -11.29,0 -31.05,2.82 -59.27,8.47 -28.22,5.64 -59.26,11.99 -93.13,19.05 -33.87,7.05 -69.85,15.52 -107.95,25.4 -38.1,9.88 -72.67,19.05 -103.72,27.51 -62.09,16.94 -112.18,43.75 -150.28,80.44 -38.1,36.69 -57.15,88.9 -57.15,156.63 0,56.45 19.75,101.6 59.27,135.47 39.51,33.86 93.13,50.8 160.86,50.8zm38.1 -1706.03c132.65,0 259.65,7.76 381,23.28 121.36,15.52 232.84,45.15 334.44,88.9 101.6,43.74 191.91,103.71 270.93,179.91 79.02,76.2 142.52,173.57 190.5,292.1 19.75,50.8 35.98,116.42 48.68,196.85 12.7,80.44 22.58,167.22 29.63,260.35 7.06,93.14 12,186.98 14.82,281.52 2.82,94.55 4.23,179.92 4.23,256.12 0,107.24 -3.52,206.72 -10.58,298.45 -7.05,91.72 -17.64,165.8 -31.75,222.25 -11.29,42.33 -26.1,77.61 -44.45,105.83 -18.34,28.22 -45.15,52.21 -80.43,71.97 -35.28,19.75 -82.55,33.86 -141.82,42.33 -59.27,8.47 -135.46,12.7 -228.6,12.7 -90.31,0 -170.74,-11.29 -241.3,-33.87 -70.55,-22.57 -114.3,-73.37 -131.23,-152.4 -8.47,-36.69 -21.17,-55.03 -38.1,-55.03 -11.29,0 -21.87,3.53 -31.75,10.58 -9.88,7.06 -21.87,14.82 -35.98,23.29 -31.05,22.57 -63.5,46.56 -97.37,71.96 -33.87,25.4 -73.38,48.69 -118.53,69.85 -45.16,21.17 -99.49,39.51 -162.99,55.04 -63.5,15.52 -141.81,23.28 -234.95,23.28 -112.89,0 -217.31,-17.64 -313.26,-52.92 -95.96,-35.27 -179.92,-86.78 -251.89,-154.51 -71.96,-67.74 -128.41,-149.58 -169.33,-245.54 -40.92,-95.95 -61.38,-204.61 -61.38,-325.96 0,-166.51 35.98,-295.63 107.95,-387.35 71.96,-91.72 160.86,-160.87 266.7,-207.44 105.83,-46.56 221.54,-76.9 347.13,-91.01 125.59,-14.11 241.3,-25.4 347.13,-33.87 105.84,-8.47 194.74,-22.58 266.7,-42.33 71.97,-19.76 107.95,-57.86 107.95,-114.3 0,-67.74 -69.14,-101.6 -207.43,-101.6 -39.51,0 -91.72,9.88 -156.63,29.63 -64.92,19.76 -132.65,41.63 -203.2,65.62 -70.56,23.99 -140.41,45.86 -209.55,65.61 -69.15,19.76 -129.12,29.64 -179.92,29.64 -39.51,0 -76.91,-9.88 -112.18,-29.64 -35.28,-19.75 -67.74,-47.27 -97.37,-82.55 -29.63,-35.27 -52.92,-76.2 -69.85,-122.76 -16.93,-46.57 -25.4,-96.66 -25.4,-150.29 0,-87.48 37.39,-157.33 112.18,-209.54 74.79,-52.22 164.4,-92.43 268.82,-120.65 104.42,-28.23 211.67,-45.87 321.73,-52.92 110.07,-7.06 198.97,-10.58 266.7,-10.58z"/>
  <path id="_14" class="fil1" d="M15705.16 4188.11c0,124.18 30.34,229.3 91.02,315.38 60.67,86.08 148.87,129.12 264.58,129.12 64.91,0 120.65,-14.82 167.22,-44.45 46.56,-29.64 83.96,-66.32 112.18,-110.07 28.22,-43.74 48.68,-93.13 61.38,-148.17 12.7,-55.03 19.05,-107.95 19.05,-158.75 0,-132.64 -32.45,-242.71 -97.36,-330.2 -64.92,-87.48 -150.99,-131.23 -258.24,-131.23 -121.35,0 -211.66,46.57 -270.93,139.7 -59.27,93.13 -88.9,206.02 -88.9,338.67zm-846.67 -939.8c31.05,-90.31 85.38,-154.52 162.99,-192.62 77.61,-38.1 175.68,-57.15 294.21,-57.15 115.71,0 201.09,12.7 256.12,38.1 55.03,25.4 99.48,66.32 133.35,122.77 14.11,25.4 27.52,45.15 40.22,59.26 12.7,14.12 30.33,21.17 52.91,21.17 33.87,0 63.5,-12.7 88.9,-38.1 25.4,-25.4 57.86,-54.33 97.37,-86.78 39.51,-32.46 91.72,-61.38 156.63,-86.78 64.91,-25.4 155.22,-38.1 270.94,-38.1 143.93,0 273.75,29.63 389.46,88.9 115.71,59.26 215.2,140.4 298.45,243.41 83.26,103.01 147.46,225.78 192.62,368.3 45.15,142.52 67.73,297.04 67.73,463.55 0,183.45 -24.69,347.84 -74.08,493.18 -49.39,145.35 -116.42,268.82 -201.09,370.42 -84.66,101.6 -184.85,179.92 -300.56,234.95 -115.71,55.03 -239.89,82.55 -372.53,82.55 -67.74,0 -128.42,-7.76 -182.04,-23.28 -53.62,-15.53 -101.6,-34.58 -143.93,-57.15 -42.33,-22.58 -78.32,-45.86 -107.95,-69.85 -29.63,-23.99 -52.92,-45.86 -69.85,-65.62 -22.58,-25.4 -47.98,-38.1 -76.2,-38.1 -14.11,0 -27.52,7.06 -40.22,21.17 -12.7,14.11 -19.05,32.45 -19.05,55.03 0,70.56 0.71,137.58 2.12,201.08 1.41,63.5 2.12,150.29 2.12,260.35 0,110.07 -39.52,194.03 -118.54,251.89 -79.02,57.85 -186.26,86.78 -321.73,86.78 -135.47,0 -244.83,-19.05 -328.08,-57.15 -83.26,-38.1 -136.18,-106.54 -158.75,-205.32 -11.29,-50.8 -21.17,-121.35 -29.64,-211.66 -8.46,-90.31 -14.81,-191.91 -19.05,-304.8 -4.23,-112.89 -7.05,-234.25 -8.46,-364.07 -1.41,-129.82 -2.12,-258.23 -2.12,-385.23 0,-127 0.71,-252.59 2.12,-376.77 1.41,-124.18 4.23,-239.18 8.46,-345.02 4.24,-105.83 11.29,-198.26 21.17,-277.28 9.88,-79.02 21.87,-139.7 35.98,-182.03z"/>
  <path id="_15" class="fil1" d="M19146.85 3891.77c39.51,0 59.27,-19.75 59.27,-59.26 0,-56.45 -28.22,-107.95 -84.67,-154.52 -56.44,-46.57 -136.88,-69.85 -241.3,-69.85 -50.8,0 -96.66,8.47 -137.58,25.4 -40.92,16.93 -75.5,38.1 -103.72,63.5 -28.22,25.4 -49.39,52.21 -63.5,80.43 -14.11,28.23 -21.16,52.22 -21.16,71.97 0,31.05 15.52,46.57 46.56,46.57l546.1 -4.24zm-313.26 -910.16c191.91,0 361.24,29.63 508,88.9 146.75,59.27 270.22,134.76 370.41,226.48 100.19,91.72 176.39,193.32 228.6,304.8 52.21,111.48 78.32,218.02 78.32,319.62 0,98.78 -19.76,183.44 -59.27,254 -39.51,70.55 -105.83,105.83 -198.97,105.83 -56.44,0 -115,-3.53 -175.68,-10.58 -60.68,-7.06 -124.88,-10.59 -192.61,-10.59 -56.45,0 -118.54,1.42 -186.27,4.24 -67.73,2.82 -137.58,4.94 -209.55,6.35 -71.97,1.41 -142.52,3.53 -211.67,6.35 -69.14,2.82 -133.35,4.23 -192.61,4.23 -16.94,0 -33.17,4.94 -48.69,14.82 -15.52,9.88 -23.28,26.1 -23.28,48.68 0,31.05 8.47,64.21 25.4,99.48 16.93,35.28 41.63,67.74 74.08,97.37 32.46,29.63 72.67,54.33 120.65,74.08 47.98,19.76 101.6,29.64 160.87,29.64 93.13,0 172.15,-12 237.07,-35.99 64.91,-23.98 123.47,-50.09 175.68,-78.31 52.21,-28.22 100.89,-54.33 146.05,-78.32 45.15,-23.99 94.54,-35.98 148.16,-35.98 42.34,0 82.55,9.88 120.65,29.63 38.1,19.76 71.97,47.27 101.6,82.55 29.64,35.28 52.92,75.49 69.85,120.65 16.94,45.16 25.4,93.13 25.4,143.93 0,70.56 -30.33,138.29 -91.01,203.2 -60.68,64.91 -141.82,122.77 -243.42,173.57 -101.6,50.8 -217.31,91.72 -347.13,122.77 -129.82,31.04 -262.47,46.56 -397.93,46.56 -177.8,0 -344.32,-26.1 -499.54,-78.31 -155.22,-52.21 -289.98,-128.41 -404.28,-228.6 -114.3,-100.19 -204.61,-222.25 -270.93,-366.19 -66.33,-143.93 -99.49,-309.03 -99.49,-495.3 0,-141.11 26.11,-282.22 78.32,-423.33 52.21,-141.11 131.23,-268.82 237.07,-383.12 105.83,-114.3 237.77,-206.72 395.81,-277.28 158.05,-70.55 341.49,-105.83 550.34,-105.83z"/>
 </g>
</svg>
